<?xml version="1.0" standalone="no"?>
<!DOCTYPE svg PUBLIC "-//W3C//DTD SVG 20010904//EN"
 "http://www.w3.org/TR/2001/REC-SVG-20010904/DTD/svg10.dtd">
<svg version="1.0" xmlns="http://www.w3.org/2000/svg"
 width="512.000000pt" height="512.000000pt" viewBox="0 0 512.000000 512.000000"
 preserveAspectRatio="xMidYMid meet">

<g transform="translate(0.000000,512.000000) scale(0.100000,-0.100000)"
fill="#000000" stroke="none">
<path d="M1619 5087 c-120 -41 -197 -111 -253 -227 l-31 -65 -3 -1697 -2
-1696 -98 -99 c-85 -84 -105 -111 -145 -193 -57 -115 -76 -187 -84 -305 -22
-346 202 -659 547 -766 62 -19 97 -24 200 -24 149 0 216 16 345 79 202 100
340 271 395 490 25 98 26 248 4 349 -33 152 -146 333 -261 420 l-50 39 -6
1050 c-4 578 -7 1334 -7 1679 0 596 -1 630 -20 690 -54 176 -197 285 -385 295
-66 4 -92 1 -146 -19z m221 -1372 l25 -25 3 -1387 2 -1387 30 -31 c101 -105
69 -274 -65 -336 -174 -81 -350 126 -251 294 14 26 33 50 41 54 13 8 15 189
17 1395 l3 1387 21 28 c42 56 122 60 174 8z"/>
<path d="M2282 4337 c-32 -34 -30 -89 4 -116 25 -20 40 -21 226 -21 l200 0 30
30 c25 26 29 36 24 63 -12 64 -25 67 -255 67 -204 0 -208 0 -229 -23z"/>
<path d="M3120 4198 c-97 -179 -189 -374 -220 -467 -26 -78 -31 -104 -25 -146
13 -106 80 -201 174 -247 37 -19 63 -23 136 -23 81 0 95 3 144 30 105 58 167
168 158 280 -3 33 -19 96 -36 140 -48 122 -253 525 -268 525 -7 0 -35 -42 -63
-92z"/>
<path d="M2305 3919 c-69 -39 -57 -136 18 -154 13 -4 108 -5 211 -3 l188 3 24
28 c30 36 30 68 0 104 l-24 28 -199 3 c-133 1 -205 -2 -218 -9z"/>
<path d="M2286 3469 c-35 -27 -36 -86 -3 -117 22 -21 32 -22 229 -22 229 0
242 3 254 67 5 27 1 37 -24 63 l-30 30 -200 0 c-186 0 -201 -1 -226 -21z"/>
<path d="M3792 3418 c-23 -29 -213 -410 -248 -498 -66 -165 -50 -282 52 -385
113 -112 312 -113 427 -2 88 86 114 187 78 309 -26 88 -270 588 -287 588 -6 0
-16 -6 -22 -12z"/>
<path d="M2282 3027 c-32 -34 -30 -89 4 -116 25 -20 40 -21 226 -21 l200 0 30
30 c25 26 29 36 24 63 -12 64 -25 67 -255 67 -204 0 -208 0 -229 -23z"/>
<path d="M2305 2609 c-69 -39 -57 -136 18 -154 13 -4 108 -5 211 -3 l188 3 24
28 c30 36 30 68 0 104 l-24 28 -199 3 c-133 1 -205 -2 -218 -9z"/>
<path d="M2915 2406 c-188 -357 -233 -480 -214 -584 13 -72 46 -129 105 -180
62 -55 127 -76 218 -70 158 10 273 123 283 278 4 55 0 79 -28 155 -43 119
-258 545 -275 545 -7 0 -47 -65 -89 -144z"/>
</g>
</svg>
