<?xml version="1.0" standalone="no"?>
<!DOCTYPE svg PUBLIC "-//W3C//DTD SVG 20010904//EN"
 "http://www.w3.org/TR/2001/REC-SVG-20010904/DTD/svg10.dtd">
<svg version="1.0" xmlns="http://www.w3.org/2000/svg"
 width="512.000000pt" height="513.000000pt" viewBox="0 0 512.000000 513.000000"
 preserveAspectRatio="xMidYMid meet">

<g transform="translate(0.000000,513.000000) scale(0.100000,-0.100000)"
fill="#000000" stroke="none">
<path d="M1875 5115 c-61 -20 -124 -59 -177 -111 -94 -93 -138 -210 -138 -372
l0 -91 -497 -3 c-490 -3 -499 -4 -554 -26 -74 -30 -139 -82 -183 -145 -70
-102 -66 -16 -66 -1419 l0 -1268 1410 0 1411 0 -3 1273 -3 1272 -23 58 c-44
109 -121 185 -229 228 -57 23 -65 24 -512 27 l-453 3 4 93 c4 104 23 147 80
181 32 20 51 20 968 20 l935 0 35 -22 c70 -43 75 -61 78 -310 l4 -223 -72 0
c-183 0 -347 -90 -435 -241 -66 -112 -65 -106 -65 -743 l0 -576 740 0 740 0 5
23 c3 12 5 274 3 582 -3 551 -4 561 -26 619 -32 86 -66 139 -125 197 -95 93
-217 139 -374 139 l-93 0 0 208 c0 114 -5 234 -10 267 -23 142 -124 275 -257
338 l-68 32 -1005 2 c-799 1 -1013 -1 -1045 -12z m-49 -1079 c381 -67 676
-329 788 -696 33 -111 52 -292 36 -351 -14 -52 -65 -103 -110 -113 -18 -3
-416 -6 -884 -6 -808 0 -853 1 -892 19 -66 30 -84 70 -84 185 0 333 176 644
470 828 106 67 251 118 400 141 60 10 201 6 276 -7z m-591 -1291 c175 -46 307
-192 336 -373 40 -247 -134 -484 -383 -523 -301 -47 -568 222 -519 523 43 268
305 441 566 373z m1088 0 c86 -22 151 -59 212 -120 242 -243 143 -655 -182
-758 -115 -37 -230 -30 -337 21 -182 87 -287 285 -255 483 42 265 306 441 562
374z"/>
<path d="M1561 3739 c-277 -42 -499 -254 -567 -541 l-6 -28 290 0 c220 0 292
3 300 13 5 6 42 73 82 147 115 213 136 246 174 264 66 31 134 17 186 -39 22
-23 25 -36 25 -93 -1 -63 -5 -74 -58 -168 -31 -56 -57 -107 -57 -113 0 -8 61
-11 205 -11 235 0 220 -9 184 101 -34 107 -86 188 -174 275 -124 123 -264 186
-442 198 -43 2 -107 0 -142 -5z"/>
<path d="M1050 2438 c-55 -28 -84 -75 -84 -137 0 -158 209 -213 290 -77 24 41
23 113 -2 157 -21 37 -92 79 -134 79 -14 0 -46 -10 -70 -22z"/>
<path d="M2145 2440 c-56 -29 -78 -64 -83 -130 -3 -45 0 -61 20 -89 68 -100
207 -98 265 5 76 132 -68 284 -202 214z"/>
<path d="M3580 1678 c0 -733 2 -774 37 -866 l16 -42 482 0 483 0 23 63 24 62
3 758 3 757 -536 0 -535 0 0 -732z"/>
<path d="M260 865 c0 -496 1 -516 21 -570 27 -73 88 -148 154 -191 106 -67 55
-65 1256 -62 l1084 3 58 23 c74 30 163 113 199 183 44 88 49 155 46 659 l-3
465 -1407 3 -1408 2 0 -515z m1188 361 c61 -22 97 -52 128 -109 54 -100 41
-263 -26 -335 -48 -50 -102 -73 -205 -85 l-93 -10 -4 -110 c-3 -105 -4 -110
-31 -133 -38 -32 -122 -34 -161 -3 l-26 20 0 367 c0 362 0 366 22 389 21 22
27 23 188 23 120 0 179 -4 208 -14z m460 -9 c14 -14 18 -43 22 -150 l5 -132
75 0 75 0 3 131 c3 157 8 165 102 172 55 4 61 2 90 -26 l30 -30 0 -352 0 -352
-29 -29 c-25 -25 -37 -29 -84 -29 -40 0 -61 6 -81 21 -26 20 -26 21 -26 165
l0 144 -80 0 -80 0 0 -139 c0 -164 -7 -180 -82 -188 -58 -7 -92 1 -118 27 -19
19 -20 35 -20 378 0 376 0 375 45 401 29 17 132 8 153 -12z"/>
<path d="M1250 966 l0 -86 54 0 c65 0 86 21 86 86 0 52 -19 70 -87 79 l-53 7
0 -86z"/>
<path d="M3960 313 c0 -183 8 -220 55 -262 68 -59 161 -50 219 22 l31 39 3
179 4 179 -156 0 -156 0 0 -157z"/>
</g>
</svg>
