<?xml version="1.0" standalone="no"?>
<!DOCTYPE svg PUBLIC "-//W3C//DTD SVG 20010904//EN"
 "http://www.w3.org/TR/2001/REC-SVG-20010904/DTD/svg10.dtd">
<svg version="1.0" xmlns="http://www.w3.org/2000/svg"
 width="512.000000pt" height="512.000000pt" viewBox="0 0 512.000000 512.000000"
 preserveAspectRatio="xMidYMid meet">

<g transform="translate(0.000000,512.000000) scale(0.100000,-0.100000)"
fill="#000000" stroke="none">
<path d="M2718 5103 c-56 -35 -66 -117 -19 -164 16 -16 38 -29 49 -29 17 0 21
-12 31 -102 14 -121 52 -238 112 -343 53 -94 145 -195 177 -195 l22 0 0 -849
c0 -531 4 -868 10 -902 20 -106 100 -223 182 -265 28 -15 31 -14 76 19 65 46
119 120 142 196 19 61 20 94 20 932 l0 869 22 0 c32 0 134 111 185 201 67 118
113 279 113 397 0 34 3 42 19 42 28 0 68 37 81 74 9 27 8 42 -4 69 -28 69 -12
67 -633 67 -502 -1 -561 -2 -585 -17z m904 -258 c-5 -105 -50 -231 -115 -322
l-30 -43 -168 0 -167 0 -27 32 c-66 78 -125 242 -125 346 l0 52 318 -2 317 -3
-3 -60z"/>
<path d="M2560 2401 l0 -368 31 -7 c17 -3 48 -6 69 -6 65 0 227 -47 323 -94
163 -80 305 -211 404 -375 l38 -63 92 -23 c101 -26 229 -88 304 -147 27 -21
52 -38 56 -38 4 0 20 19 34 43 133 213 160 426 144 1120 l-7 327 -159 0 -159
0 0 -133 c0 -146 -13 -213 -59 -312 -56 -120 -159 -219 -299 -289 l-63 -31
-82 42 c-134 69 -221 152 -279 267 -51 101 -60 141 -65 304 l-5 152 -159 0
-159 0 0 -369z"/>
<path d="M2411 1799 c-170 -33 -337 -131 -436 -257 -50 -61 -121 -198 -131
-250 -4 -18 -10 -35 -15 -38 -5 -2 -45 3 -91 12 -260 53 -544 -48 -714 -254
-87 -106 -139 -228 -170 -397 -2 -12 -23 -30 -50 -45 -63 -33 -144 -108 -184
-170 -38 -59 -75 -164 -84 -238 l-7 -52 2031 0 2031 0 -6 58 c-17 149 -61 266
-139 375 -109 154 -288 269 -463 299 l-72 12 -20 49 c-31 73 -105 171 -172
227 -107 89 -266 149 -395 150 l-51 0 -21 58 c-66 178 -217 339 -388 412 -123
53 -322 75 -453 49z"/>
</g>
</svg>
